<svg width="42" height="40" viewBox="0 0 42 40" fill="none" xmlns="http://www.w3.org/2000/svg">
<g id="Social Icons" clip-path="url(#clip0_2011_6014)">
<path id="Vector" d="M21 3.60156C26.6109 3.60156 27.2754 3.625 29.482 3.71875C31.5328 3.80469 32.6402 4.13281 33.3785 4.40625C34.3547 4.76563 35.0602 5.20313 35.7902 5.89844C36.5285 6.60156 36.9797 7.26563 37.357 8.19531C37.6441 8.89844 37.9887 9.96094 38.0789 11.9062C38.1773 14.0156 38.202 14.6484 38.202 19.9844C38.202 25.3281 38.1773 25.9609 38.0789 28.0625C37.9887 30.0156 37.6441 31.0703 37.357 31.7734C36.9797 32.7031 36.5203 33.375 35.7902 34.0703C35.052 34.7734 34.3547 35.2031 33.3785 35.5625C32.6402 35.8359 31.5246 36.1641 29.482 36.25C27.2672 36.3438 26.6027 36.3672 21 36.3672C15.3891 36.3672 14.7246 36.3438 12.518 36.25C10.4672 36.1641 9.35977 35.8359 8.62149 35.5625C7.64531 35.2031 6.93984 34.7656 6.20977 34.0703C5.47148 33.3672 5.02031 32.7031 4.64297 31.7734C4.35586 31.0703 4.01133 30.0078 3.92109 28.0625C3.82266 25.9531 3.79805 25.3203 3.79805 19.9844C3.79805 14.6406 3.82266 14.0078 3.92109 11.9062C4.01133 9.95312 4.35586 8.89844 4.64297 8.19531C5.02031 7.26563 5.47969 6.59375 6.20977 5.89844C6.94805 5.19531 7.64531 4.76563 8.62149 4.40625C9.35977 4.13281 10.4754 3.80469 12.518 3.71875C14.7246 3.625 15.3891 3.60156 21 3.60156ZM21 0C15.2988 0 14.5852 0.0234375 12.3457 0.117188C10.1145 0.210938 8.58047 0.554687 7.25156 1.04688C5.86523 1.5625 4.69219 2.24219 3.52734 3.35938C2.3543 4.46875 1.64063 5.58594 1.09922 6.89844C0.582422 8.17188 0.221484 9.625 0.123047 11.75C0.0246094 13.8906 0 14.5703 0 20C0 25.4297 0.0246094 26.1094 0.123047 28.2422C0.221484 30.3672 0.582422 31.8281 1.09922 33.0938C1.64063 34.4141 2.3543 35.5312 3.52734 36.6406C4.69219 37.75 5.86524 38.4375 7.24336 38.9453C8.58047 39.4375 10.1063 39.7812 12.3375 39.875C14.577 39.9688 15.2906 39.9922 20.9918 39.9922C26.693 39.9922 27.4066 39.9688 29.6461 39.875C31.8773 39.7812 33.4113 39.4375 34.7402 38.9453C36.1184 38.4375 37.2914 37.75 38.4563 36.6406C39.6211 35.5312 40.343 34.4141 40.8762 33.1016C41.393 31.8281 41.7539 30.375 41.8523 28.25C41.9508 26.1172 41.9754 25.4375 41.9754 20.0078C41.9754 14.5781 41.9508 13.8984 41.8523 11.7656C41.7539 9.64063 41.393 8.17969 40.8762 6.91406C40.3594 5.58594 39.6457 4.46875 38.4727 3.35938C37.3078 2.25 36.1348 1.5625 34.7566 1.05469C33.4195 0.5625 31.8938 0.21875 29.6625 0.125C27.4148 0.0234375 26.7012 0 21 0Z" fill="#947901"/>
<path id="Vector_2" d="M21 9.72656C15.0445 9.72656 10.2129 14.3281 10.2129 20C10.2129 25.6719 15.0445 30.2734 21 30.2734C26.9555 30.2734 31.7871 25.6719 31.7871 20C31.7871 14.3281 26.9555 9.72656 21 9.72656ZM21 26.6641C17.1363 26.6641 14.0027 23.6797 14.0027 20C14.0027 16.3203 17.1363 13.3359 21 13.3359C24.8637 13.3359 27.9973 16.3203 27.9973 20C27.9973 23.6797 24.8637 26.6641 21 26.6641Z" fill="#947901"/>
<path id="Vector_3" d="M34.732 9.32032C34.732 10.6484 33.6 11.7188 32.2137 11.7188C30.8191 11.7188 29.6953 10.6406 29.6953 9.32032C29.6953 7.99219 30.8273 6.92188 32.2137 6.92188C33.6 6.92188 34.732 8 34.732 9.32032Z" fill="#947901"/>
</g>
<defs>
<clipPath id="clip0_2011_6014">
<rect width="42" height="40" fill="white"/>
</clipPath>
</defs>
</svg>
